<svg width="207" height="63" viewBox="0 0 207 63" fill="none" xmlns="http://www.w3.org/2000/svg">
<path d="M185.123 25.0147C185.123 26.2499 184.815 27.7941 184.198 29.3382C183.582 30.8823 182.658 32.1176 181.733 33.6617C180.809 35.2058 179.576 36.4411 178.344 37.3676C177.111 38.6029 176.187 39.5294 174.954 40.7647L172.797 42.3088V42.6176L175.262 41.9999H181.733L180.809 46.0146H166.635L167.251 43.5441C167.867 42.9264 168.792 41.9999 169.716 41.3823C170.64 40.4558 171.565 39.5294 172.489 38.6029C173.414 37.6764 174.646 36.4411 175.571 35.5147C176.495 34.5882 177.419 33.3529 178.036 32.4264C178.652 31.4999 179.268 30.2647 179.884 29.3382C180.501 28.4117 180.501 27.4852 180.501 26.5588C180.501 25.6323 180.193 25.0147 179.884 24.7058C179.576 24.0882 178.652 23.7794 177.419 23.7794C176.803 23.7794 175.879 24.0882 174.954 24.397C174.03 24.7058 173.414 25.3235 172.489 25.9411L171.257 22.5441C172.489 21.6176 173.722 20.9999 174.954 20.6911C176.187 20.3823 177.419 20.0735 179.268 20.0735C181.117 20.0735 182.349 20.6911 183.582 21.6176C184.815 21.9264 185.123 23.4705 185.123 25.0147Z" fill="#A6ABBD"/>
<path d="M205.151 38.6027H201.145L199.605 46.0144H195.291L196.831 38.6027H186.355L186.971 35.8233L201.453 19.7644H205.151L202.07 34.8968H206.075L205.151 38.6027ZM198.988 29.0292L199.913 25.9409L198.064 28.7203L193.442 33.6615L191.285 35.2056L193.442 34.8968H197.448L198.988 29.0292Z" fill="#A6ABBD"/>
<path d="M207 11.7353L205.768 12.0441L202.07 12.9706L191.594 15.1324L193.442 8.95588C178.96 4.94118 163.862 13.2794 159.548 27.7941C154.926 42.3088 162.629 57.75 176.803 63C161.705 57.75 153.077 41.3824 158.007 25.6324C162.937 10.1912 179.268 1.23529 194.675 5.86765L196.216 0L207 11.7353Z" fill="#00C368"/>
<path d="M7.01929 38.8848L5.56909 47.1509H0.8479L4.92456 23.69L13.1423 23.7061C15.6775 23.7061 17.6702 24.4097 19.1204 25.817C20.5706 27.2242 21.2043 29.0611 21.0217 31.3277C20.8499 33.6265 19.8884 35.4634 18.1375 36.8384C16.3972 38.2134 14.1736 38.9009 11.4666 38.9009L7.01929 38.8848ZM7.67993 34.9693L11.6116 35.0015C12.8792 35.0015 13.9319 34.6739 14.7698 34.0186C15.6077 33.3633 16.1072 32.4771 16.2683 31.3599C16.4294 30.2427 16.2468 29.3511 15.7205 28.6851C15.2048 28.0191 14.4368 27.6646 13.4163 27.6216L8.96899 27.6055L7.67993 34.9693ZM31.7209 38.5626H27.886L26.3875 47.1509H21.6663L25.7429 23.69L33.5095 23.7061C36.1091 23.7061 38.1072 24.3184 39.5037 25.543C40.9109 26.7676 41.5339 28.4703 41.3728 30.6509C41.1472 33.8736 39.4285 36.1133 36.2166 37.3702L39.5198 46.8931V47.1509H34.4924L31.7209 38.5626ZM28.5627 34.647L32.0754 34.6793C33.3215 34.6578 34.3474 34.3248 35.1531 33.6802C35.9695 33.025 36.4583 32.1387 36.6194 31.0215C36.7698 29.9796 36.6033 29.1632 36.1199 28.5723C35.6365 27.9815 34.8684 27.6646 33.8157 27.6216L29.7874 27.6055L28.5627 34.647ZM51.6853 47.4732C50.1277 47.441 48.7527 47.0757 47.5603 46.3775C46.3787 45.6685 45.4387 44.6534 44.7405 43.3321C44.053 42.0001 43.6555 40.4747 43.5481 38.7559C43.4299 36.9942 43.6179 35.1143 44.1121 33.1163C44.6062 31.1182 45.4011 29.3619 46.4968 27.8472C47.5925 26.3326 48.8762 25.1993 50.3479 24.4473C51.8303 23.6954 53.4309 23.3355 55.1497 23.3677C56.7288 23.4 58.1091 23.7759 59.2908 24.4957C60.4724 25.2047 61.4016 26.2305 62.0784 27.5733C62.7551 28.9053 63.1418 30.42 63.2385 32.1173C63.3459 34.0079 63.1418 35.9522 62.6262 37.9503C62.1106 39.9483 61.3103 41.6778 60.2253 43.1387C59.1404 44.5997 57.8674 45.6954 56.4065 46.4258C54.9563 47.1563 53.3826 47.5054 51.6853 47.4732ZM58.3723 34.7759L58.5012 33.2452C58.6086 31.3331 58.3508 29.8829 57.7278 28.8946C57.1155 27.9063 56.1809 27.3907 54.9241 27.3477C52.9583 27.2833 51.3953 28.1534 50.2351 29.9581C49.0857 31.7628 48.4358 34.2872 48.2854 37.5313C48.178 39.4327 48.4304 40.899 49.0427 41.9302C49.655 42.9507 50.6057 43.4825 51.8948 43.5255C53.5813 43.6007 54.9778 42.9454 56.0842 41.5596C57.1907 40.1632 57.9158 38.192 58.2595 35.6461L58.3723 34.7759ZM64.5276 47.1509L68.6042 23.69L75.3396 23.7061C76.9187 23.7383 78.3367 24.0982 79.5935 24.7857C80.8611 25.4625 81.887 26.44 82.6711 27.7183C83.4553 28.9966 83.928 30.4361 84.0891 32.0367C84.175 32.9713 84.1643 33.9273 84.0569 34.9049L83.9441 35.7589C83.4714 39.1964 82.1179 41.9571 79.8835 44.0411C77.6599 46.1143 74.9583 47.1509 71.7786 47.1509H64.5276ZM72.6487 27.6055L69.9255 43.2676L71.8914 43.2838C74.0613 43.2838 75.8015 42.4888 77.1121 40.899C78.4333 39.3091 79.1907 36.9083 79.384 33.6964L79.4163 33.1807C79.4485 31.4083 79.1101 30.0494 78.4011 29.1041C77.6921 28.1588 76.634 27.6646 75.2268 27.6216L72.6487 27.6055ZM106.906 23.69L104.263 39.1588C103.898 41.7476 102.823 43.794 101.04 45.2979C99.2571 46.8018 97.0442 47.5323 94.4016 47.4893C92.7473 47.4571 91.3079 47.0972 90.0833 46.4097C88.8694 45.7115 87.9724 44.734 87.3923 43.4771C86.8123 42.2095 86.6135 40.7755 86.7961 39.1749L89.4226 23.69H94.1438L91.5173 39.191C91.4421 39.7925 91.4368 40.3565 91.5012 40.8829C91.7161 42.6231 92.7527 43.5255 94.6111 43.5899C95.9431 43.6329 97.0334 43.2676 97.8821 42.4942C98.7307 41.7208 99.2786 40.6143 99.5256 39.1749L102.168 23.69H106.906ZM125.871 39.3199C125.688 40.942 125.135 42.3814 124.211 43.6382C123.287 44.8843 122.084 45.8458 120.602 46.5225C119.119 47.1885 117.519 47.5054 115.8 47.4732C114.253 47.441 112.905 47.0865 111.756 46.4097C110.606 45.7222 109.698 44.734 109.032 43.4449C108.377 42.1451 108.007 40.6519 107.921 38.9654C107.845 37.6441 107.98 36.0006 108.323 34.0347C108.678 32.0689 109.301 30.3233 110.193 28.7979C111.095 27.2725 112.164 26.064 113.399 25.1724C115.139 23.9263 117.127 23.3248 119.361 23.3677C121.789 23.4107 123.712 24.1627 125.13 25.6236C126.558 27.0738 127.343 29.0933 127.482 31.6822L122.777 31.6661C122.777 30.1837 122.482 29.0987 121.891 28.4112C121.3 27.7237 120.382 27.3585 119.135 27.3155C117.524 27.2618 116.198 27.8365 115.156 29.0396C114.124 30.2427 113.431 31.9991 113.077 34.3087C112.733 36.5538 112.583 38.2349 112.626 39.3521C112.679 40.7701 112.996 41.8174 113.576 42.4942C114.156 43.1602 114.968 43.5093 116.01 43.5416C117.449 43.5953 118.598 43.2569 119.458 42.5264C120.328 41.7852 120.903 40.7271 121.182 39.3521L125.871 39.3199ZM147.914 27.6055H140.953L137.569 47.1509H132.848L136.232 27.6055H129.351L130.044 23.69H148.607L147.914 27.6055Z" fill="#A6ABBD"/>
</svg>
