<svg version="1.1" xmlns="http://www.w3.org/2000/svg">

<symbol id="about-1" viewBox="0 0 33 33">
<path d="M7.66968 26.0544C4.92893 23.3136 4.92893 18.87 7.66968 16.1292L16.135 7.66392C18.8726 4.9263 23.3112 4.9263 26.0488 7.66392C29.0213 10.6365 28.7263 15.5552 25.5307 18.3414C24.3323 19.3863 23.1465 20.4622 22.1545 21.4434C20.9492 22.6356 19.6163 24.0972 18.3497 25.5475C15.5621 28.7394 10.6421 29.0268 7.66968 26.0544Z" fill="white" stroke="#2E3A59"/>
<path d="M6.10563 24.3985C3.97393 22.2668 3.77622 18.8904 5.7049 16.599C7.42823 14.5517 9.48823 12.2006 11.2516 10.4564C12.8034 8.92149 14.8556 7.13433 16.6912 5.59596C18.9825 3.67557 22.3533 3.87667 24.4813 6.00463C27.0054 8.52879 26.7602 12.7109 24.0264 15.0504C22.5298 16.3312 20.9829 17.7092 19.7407 18.9379C18.2827 20.38 16.6368 22.2176 15.1465 23.9539C12.8059 26.6809 8.62734 26.9202 6.10563 24.3985Z" fill="white" stroke="#2E3A59"/>
<rect x="14.4355" y="11.5151" width="6" height="6" rx="3" transform="rotate(-45 14.4355 11.5151)" fill="#FFD058" stroke="#2E3A59"/>
<g filter="url(#filter0_d)">
<rect x="8" y="19.9999" width="2" height="2" rx="1" transform="rotate(-45 8 19.9999)" fill="#00C368"/>
</g>
<defs>
<filter id="filter0_d" x="7.41418" y="17.9999" width="6" height="6" filterUnits="userSpaceOnUse" color-interpolation-filters="sRGB">
<feFlood flood-opacity="0" result="BackgroundImageFix"/>
<feColorMatrix in="SourceAlpha" type="matrix" values="0 0 0 0 0 0 0 0 0 0 0 0 0 0 0 0 0 0 127 0" result="hardAlpha"/>
<feOffset dx="1" dy="1"/>
<feGaussianBlur stdDeviation="1"/>
<feColorMatrix type="matrix" values="0 0 0 0 0 0 0 0 0 0.764706 0 0 0 0 0.407843 0 0 0 0.8 0"/>
<feBlend mode="normal" in2="BackgroundImageFix" result="effect1_dropShadow"/>
<feBlend mode="normal" in="SourceGraphic" in2="effect1_dropShadow" result="shape"/>
</filter>
</defs>
</symbol>

<symbol id="about-2" viewBox="0 0 16 21">
<path d="M0.5 8C0.5 3.85786 3.85786 0.5 8 0.5C12.1421 0.5 15.5 3.85786 15.5 8V15.5H0.5V8Z" fill="white" stroke="#2E3A59"/>
<rect x="2" y="16" width="2" height="5" fill="#2E3A59"/>
<rect x="12" y="16" width="2" height="5" fill="#2E3A59"/>
<rect x="1" y="13" width="14" height="2" fill="#A6ABBD"/>
</symbol>

<symbol id="about-3" viewBox="0 0 30 33">
<rect x="3.5" y="0.5" width="23" height="23" rx="11.5" fill="white" stroke="#2E3A59"/>
<rect x="11.5" y="28.5" width="7" height="4" rx="1.5" fill="#FFD058" stroke="#2E3A59"/>
<path d="M9.5 22.5H20.5V29C20.5 29.8284 19.8284 30.5 19 30.5H11C10.1716 30.5 9.5 29.8284 9.5 29V22.5Z" fill="#A6ABBD" stroke="#2E3A59"/>
<rect x="10" y="24" width="1" height="1" fill="#2E3A59"/>
<rect x="19" y="24" width="1" height="1" fill="#2E3A59"/>
<rect x="10" y="26" width="1" height="1" fill="#2E3A59"/>
<rect x="19" y="26" width="1" height="1" fill="#2E3A59"/>
<rect x="10" y="28" width="1" height="1" fill="#2E3A59"/>
<rect x="19" y="28" width="1" height="1" fill="#2E3A59"/>
<rect x="0.990234" y="29.8027" width="39.3129" height="1" transform="rotate(-45 0.990234 29.8027)" fill="#2E3A59"/>
</symbol>

<symbol id="about-4" viewBox="0 0 24 28">
<rect x="9" y="9" width="1" height="10" fill="#2E3A59"/>
<rect x="9" y="9" width="1" height="10" fill="#2E3A59"/>
<rect x="9" y="9" width="1" height="10" fill="#2E3A59"/>
<rect x="14.5671" y="3.35779" width="1" height="13.3677" transform="rotate(30 14.5671 3.35779)" fill="#2E3A59"/>
<rect x="14.5671" y="3.35779" width="1" height="13.3677" transform="rotate(30 14.5671 3.35779)" fill="#2E3A59"/>
<rect x="14.5671" y="3.35779" width="1" height="13.3677" transform="rotate(30 14.5671 3.35779)" fill="#2E3A59"/>
<rect x="19.1423" y="7.56702" width="1" height="12.077" transform="rotate(60 19.1423 7.56702)" fill="#2E3A59"/>
<rect x="19.1423" y="7.56702" width="1" height="12.077" transform="rotate(60 19.1423 7.56702)" fill="#2E3A59"/>
<rect x="19.1423" y="7.56702" width="1" height="12.077" transform="rotate(60 19.1423 7.56702)" fill="#2E3A59"/>
<rect x="19.6423" y="19.5671" width="1" height="13.1329" transform="rotate(120 19.6423 19.5671)" fill="#2E3A59"/>
<rect x="19.6423" y="19.5671" width="1" height="13.1329" transform="rotate(120 19.6423 19.5671)" fill="#2E3A59"/>
<rect x="19.6423" y="19.5671" width="1" height="13.1329" transform="rotate(120 19.6423 19.5671)" fill="#2E3A59"/>
<rect x="15.4331" y="24.1423" width="1" height="15.5875" transform="rotate(150 15.4331 24.1423)" fill="#2E3A59"/>
<rect x="15.4331" y="24.1423" width="1" height="15.5875" transform="rotate(150 15.4331 24.1423)" fill="#2E3A59"/>
<rect x="15.4331" y="24.1423" width="1" height="15.5875" transform="rotate(150 15.4331 24.1423)" fill="#2E3A59"/>
<rect y="7" width="14" height="14" rx="7" fill="#E7EBF0"/>
<rect x="6" y="2" width="1" height="24" fill="#2E3A59"/>
<path d="M21 14H14" stroke="#2E3A59"/>
<path d="M6.5 8.52242C9.30325 8.77504 11.5 11.131 11.5 14C11.5 16.869 9.30325 19.225 6.5 19.4776V8.52242Z" fill="white" stroke="#2E3A59"/>
<rect x="14.5" y="0.5" width="3" height="3" rx="1.5" fill="#FFD058" stroke="#2E3A59"/>
<rect x="19.5" y="5.5" width="3" height="3" rx="1.5" fill="#FFD058" stroke="#2E3A59"/>
<rect x="20.5" y="12.5" width="3" height="3" rx="1.5" fill="#FFD058" stroke="#2E3A59"/>
<rect x="19.5" y="19.5" width="3" height="3" rx="1.5" fill="#FFD058" stroke="#2E3A59"/>
<rect x="14.5" y="24.5" width="3" height="3" rx="1.5" fill="#FFD058" stroke="#2E3A59"/>
</symbol>

<symbol id="about-5" viewBox="0 0 24 27">
<rect x="0.5" y="3.5" width="23" height="23" rx="11.5" stroke="#2E3A59"/>
<rect x="4.5" y="7.5" width="15" height="15" rx="7.5" stroke="#2E3A59"/>
<rect x="8" width="8" height="12" fill="#E7EBF0"/>
<rect x="10.5" y="0.5" width="3" height="11" rx="1.5" fill="#FFD058" stroke="#2E3A59"/>
</symbol>

<symbol id="promo-1" viewBox="0 0 80 88">
<g filter="url(#filter0_d)">
<path d="M64 43.5V29C64 15.7452 53.2548 5 40 5H32C18.7452 5 8 15.7452 8 29V43.5" stroke="#2E3A59" stroke-width="2"/>
<path d="M13 35C13 22.2975 23.2975 12 36 12C48.7025 12 59 22.2975 59 35V43C59 55.7025 48.7025 66 36 66C23.2975 66 13 55.7025 13 43V35Z" stroke="#2E3A59" stroke-width="2"/>
<path d="M33.5 74.5L40 74.5C53.2548 74.5 64 63.7548 64 50.5L64 40" stroke="#2E3A59" stroke-width="2"/>
<rect x="5" y="36" width="6" height="14" rx="3" stroke="#2E3A59" stroke-width="2"/>
<rect x="61" y="36" width="6" height="14" rx="3" stroke="#2E3A59" stroke-width="2"/>
</g>
<defs>
<filter id="filter0_d" x="0" y="0" width="80" height="87.5" filterUnits="userSpaceOnUse" color-interpolation-filters="sRGB">
<feFlood flood-opacity="0" result="BackgroundImageFix"/>
<feColorMatrix in="SourceAlpha" type="matrix" values="0 0 0 0 0 0 0 0 0 0 0 0 0 0 0 0 0 0 127 0"/>
<feOffset dx="4" dy="4"/>
<feGaussianBlur stdDeviation="4"/>
<feColorMatrix type="matrix" values="0 0 0 0 0.65098 0 0 0 0 0.670588 0 0 0 0 0.741176 0 0 0 1 0"/>
<feBlend mode="normal" in2="BackgroundImageFix" result="effect1_dropShadow"/>
<feBlend mode="normal" in="SourceGraphic" in2="effect1_dropShadow" result="shape"/>
</filter>
</defs>
</symbol>

<symbol id="promo-2" viewBox="0 0 81 96">
<g filter="url(#filter0_d)">
<circle cx="31.69" cy="73.4106" r="7" transform="rotate(-15 31.69 73.4106)" stroke="#2E3A59" stroke-width="2"/>
<rect x="30.9965" y="32.1853" width="30" height="30" transform="rotate(-15 30.9965 32.1853)" stroke="#2E3A59" stroke-width="2"/>
<g filter="url(#filter1_d)">
<rect x="43.1052" y="31.0114" width="6" height="8" transform="rotate(-15 43.1052 31.0114)" stroke="#00C368" stroke-width="2"/>
</g>
</g>
<defs>
<filter id="filter0_d" x="17.8921" y="19.196" width="63.0715" height="76.0125" filterUnits="userSpaceOnUse" color-interpolation-filters="sRGB">
<feFlood flood-opacity="0" result="BackgroundImageFix"/>
<feColorMatrix in="SourceAlpha" type="matrix" values="0 0 0 0 0 0 0 0 0 0 0 0 0 0 0 0 0 0 127 0"/>
<feOffset dx="4" dy="4"/>
<feGaussianBlur stdDeviation="4"/>
<feColorMatrix type="matrix" values="0 0 0 0 0.65098 0 0 0 0 0.670588 0 0 0 0 0.741176 0 0 0 1 0"/>
<feBlend mode="normal" in2="BackgroundImageFix" result="effect1_dropShadow"/>
<feBlend mode="normal" in="SourceGraphic" in2="effect1_dropShadow" result="shape"/>
</filter>
<filter id="filter1_d" x="39.8805" y="26.2337" width="18.3156" height="19.7298" filterUnits="userSpaceOnUse" color-interpolation-filters="sRGB">
<feFlood flood-opacity="0" result="BackgroundImageFix"/>
<feColorMatrix in="SourceAlpha" type="matrix" values="0 0 0 0 0 0 0 0 0 0 0 0 0 0 0 0 0 0 127 0"/>
<feOffset dx="2" dy="2"/>
<feGaussianBlur stdDeviation="2"/>
<feColorMatrix type="matrix" values="0 0 0 0 0 0 0 0 0 0.764706 0 0 0 0 0.407843 0 0 0 0.4 0"/>
<feBlend mode="normal" in2="BackgroundImageFix" result="effect1_dropShadow"/>
<feBlend mode="normal" in="SourceGraphic" in2="effect1_dropShadow" result="shape"/>
</filter>
</defs>
</symbol>

<symbol id="promo-3" viewBox="0 0 73 88">
<g filter="url(#filter0_d)">
<rect x="5.5" y="5" width="54" height="70" rx="3" stroke="#2E3A59" stroke-width="2"/>
<path d="M13.5 5H51.5V10C51.5 11.6569 50.1569 13 48.5 13H16.5C14.8431 13 13.5 11.6569 13.5 10V5Z" stroke="#2E3A59" stroke-width="2"/>
<g filter="url(#filter1_d)">
<path d="M13.5 61C13.5 59.3431 14.8431 58 16.5 58H48.5C50.1569 58 51.5 59.3431 51.5 61V63C51.5 64.6569 50.1569 66 48.5 66H16.5C14.8431 66 13.5 64.6569 13.5 63V61Z" stroke="#00C368" stroke-width="2"/>
</g>
</g>
<defs>
<filter id="filter0_d" x="0.5" y="0" width="72" height="88" filterUnits="userSpaceOnUse" color-interpolation-filters="sRGB">
<feFlood flood-opacity="0" result="BackgroundImageFix"/>
<feColorMatrix in="SourceAlpha" type="matrix" values="0 0 0 0 0 0 0 0 0 0 0 0 0 0 0 0 0 0 127 0"/>
<feOffset dx="4" dy="4"/>
<feGaussianBlur stdDeviation="4"/>
<feColorMatrix type="matrix" values="0 0 0 0 0.65098 0 0 0 0 0.670588 0 0 0 0 0.741176 0 0 0 1 0"/>
<feBlend mode="normal" in2="BackgroundImageFix" result="effect1_dropShadow"/>
<feBlend mode="normal" in="SourceGraphic" in2="effect1_dropShadow" result="shape"/>
</filter>
<filter id="filter1_d" x="10.5" y="55" width="48" height="18" filterUnits="userSpaceOnUse" color-interpolation-filters="sRGB">
<feFlood flood-opacity="0" result="BackgroundImageFix"/>
<feColorMatrix in="SourceAlpha" type="matrix" values="0 0 0 0 0 0 0 0 0 0 0 0 0 0 0 0 0 0 127 0"/>
<feOffset dx="2" dy="2"/>
<feGaussianBlur stdDeviation="2"/>
<feColorMatrix type="matrix" values="0 0 0 0 0 0 0 0 0 0.764706 0 0 0 0 0.407843 0 0 0 0.4 0"/>
<feBlend mode="normal" in2="BackgroundImageFix" result="effect1_dropShadow"/>
<feBlend mode="normal" in="SourceGraphic" in2="effect1_dropShadow" result="shape"/>
</filter>
</defs>
</symbol>

<symbol id="promo-4" viewBox="0 0 113 103">
<g filter="url(#filter0_d)">
<path d="M19.1607 65.5423C13.3029 59.6844 13.3028 50.1869 19.1607 44.3291L44.7138 18.7759C50.5717 12.9181 60.0692 12.9181 65.927 18.7759L70.3751 23.224C76.7391 29.588 76.1152 40.1228 69.2298 46.0046C65.3795 49.2937 61.381 52.849 58.1861 56.0092C54.446 59.7086 50.2117 64.4448 46.3971 68.8965C40.5133 75.7631 29.9905 76.372 23.6345 70.016L19.1607 65.5423Z" stroke="#2E3A59" stroke-width="2"/>
<path d="M17.1362 63.2873C11.7662 57.9174 11.2645 49.4046 16.1269 43.6212C20.5091 38.409 25.7879 32.3754 30.3021 27.9102C34.2798 23.9757 39.5538 19.3897 44.2348 15.4712C50.0198 10.6285 58.5205 11.1389 63.8823 16.5008L64.2826 16.9011C70.6467 23.2652 70.0228 33.7999 63.1374 39.6817C59.2871 42.9708 55.2886 46.5262 52.0937 49.6863C48.3536 53.3858 44.1192 58.1219 40.3046 62.5737C34.4209 69.4402 23.898 70.0492 17.542 63.6932L17.1362 63.2873Z" stroke="#2E3A59" stroke-width="2"/>
<rect x="38.1523" y="30.7675" width="15.6653" height="15.6653" rx="7.83265" transform="rotate(-45 38.1523 30.7675)" stroke="#2E3A59" stroke-width="2"/>
<rect x="73.5" y="67.9999" width="26" height="22" rx="1" stroke="#2E3A59" stroke-width="2"/>
<path d="M75.5 44.9994C82.5 46.9994 86.5 49.9999 86.5002 60.999" stroke="#2E3A59" stroke-width="2"/>
</g>
<defs>
<filter id="filter0_d" x="0.615234" y="6.10352e-05" width="111.885" height="103" filterUnits="userSpaceOnUse" color-interpolation-filters="sRGB">
<feFlood flood-opacity="0" result="BackgroundImageFix"/>
<feColorMatrix in="SourceAlpha" type="matrix" values="0 0 0 0 0 0 0 0 0 0 0 0 0 0 0 0 0 0 127 0"/>
<feOffset dx="4" dy="4"/>
<feGaussianBlur stdDeviation="4"/>
<feColorMatrix type="matrix" values="0 0 0 0 0.65098 0 0 0 0 0.670588 0 0 0 0 0.741176 0 0 0 1 0"/>
<feBlend mode="normal" in2="BackgroundImageFix" result="effect1_dropShadow"/>
<feBlend mode="normal" in="SourceGraphic" in2="effect1_dropShadow" result="shape"/>
</filter>
</defs>
</symbol>
</svg>